<svg width="166" height="64" viewBox="0 0 166 64" fill="none" xmlns="http://www.w3.org/2000/svg">
    <circle cx="59" cy="32" r="32" fill="#DFDFDF"/>
    <g filter="url(#filter0_d_110_74)">
        <circle cx="59" cy="32" r="16" fill="black" fill-opacity="0.8"/>
    </g>
    <ellipse cx="59" cy="31.9375" rx="10.375" ry="10.0625" fill="black"/>
    <path d="M5.904 30.56V41H2.592V15.224H11.376C13.608 15.224 15.504 15.968 17.064 17.456C18.648 18.944 19.44 20.756 19.44 22.892C19.44 25.076 18.648 26.9 17.064 28.364C15.528 29.828 13.632 30.56 11.376 30.56H5.904ZM5.904 18.392V27.392H11.448C12.768 27.392 13.86 26.948 14.724 26.06C15.612 25.172 16.056 24.116 16.056 22.892C16.056 21.692 15.612 20.648 14.724 19.76C13.86 18.848 12.768 18.392 11.448 18.392H5.904ZM22.5121 15.224H25.8241V23.36L25.6801 25.808H25.8241C26.3281 24.944 27.0961 24.224 28.1281 23.648C29.1841 23.072 30.2761 22.784 31.4041 22.784C33.5641 22.784 35.2201 23.408 36.3721 24.656C37.5481 25.88 38.1361 27.632 38.1361 29.912V41H34.8241V30.56C34.8241 27.392 33.4201 25.808 30.6121 25.808C29.2681 25.808 28.1281 26.372 27.1921 27.5C26.2801 28.604 25.8241 29.9 25.8241 31.388V41H22.5121V15.224Z" fill="black"/>
    <path d="M88 44.288C86.56 44.288 85.36 43.844 84.4 42.956C83.464 42.068 82.984 40.832 82.96 39.248V29.384H79.864V26.36H82.96V20.96H86.272V26.36H90.592V29.384H86.272V38.168C86.272 39.344 86.5 40.148 86.956 40.58C87.412 40.988 87.928 41.192 88.504 41.192C88.768 41.192 89.02 41.168 89.26 41.12C89.524 41.048 89.764 40.964 89.98 40.868L91.024 43.82C90.16 44.132 89.152 44.288 88 44.288ZM109.115 18.224H113.399V18.368L103.823 29.42L114.047 43.856V44H109.979L101.591 31.976L97.6306 36.548V44H94.3186V18.224H97.6306V31.508H97.7746L109.115 18.224ZM123.354 44.576C120.762 44.576 118.626 43.688 116.946 41.912C115.266 40.136 114.426 37.892 114.426 35.18C114.426 32.492 115.242 30.26 116.874 28.484C118.506 26.684 120.594 25.784 123.138 25.784C125.754 25.784 127.83 26.636 129.366 28.34C130.926 30.02 131.706 32.384 131.706 35.432L131.67 35.792H117.81C117.858 37.52 118.434 38.912 119.538 39.968C120.642 41.024 121.962 41.552 123.498 41.552C125.61 41.552 127.266 40.496 128.466 38.384L131.418 39.824C130.626 41.312 129.522 42.476 128.106 43.316C126.714 44.156 125.13 44.576 123.354 44.576ZM118.062 33.056H128.178C128.082 31.832 127.578 30.824 126.666 30.032C125.778 29.216 124.578 28.808 123.066 28.808C121.818 28.808 120.738 29.192 119.826 29.96C118.938 30.728 118.35 31.76 118.062 33.056ZM150.151 26.36L139.099 51.776H135.679L139.783 42.884L132.511 26.36H136.111L141.367 39.032H141.439L146.551 26.36H150.151Z" fill="black"/>
    <path fill-rule="evenodd" clip-rule="evenodd" d="M161.75 38.8534L161.206 38.3604C159.275 36.6163 158 35.4659 158 34.0542C158 32.9038 158.908 32 160.062 32C160.715 32 161.341 32.3025 161.75 32.7806C162.159 32.3025 162.785 32 163.438 32C164.592 32 165.5 32.9038 165.5 34.0542C165.5 35.4659 164.225 36.6163 162.294 38.3642L161.75 38.8534Z" fill="#9B51E0"/>
    <defs>
        <filter id="filter0_d_110_74" x="33" y="7" width="52" height="52"
            color-interpolation-filters="sRGB">
            <feFlood flood-opacity="0" result="BackgroundImageFix"/>
            <feColorMatrix in="SourceAlpha" values="0 0 0 0 0 0 0 0 0 0 0 0 0 0 0 0 0 0 127 0" result="hardAlpha"/>
            <feMorphology radius="2" operator="dilate" in="SourceAlpha" result="effect1_dropShadow_110_74"/>
            <feOffset dy="1"/>
            <feGaussianBlur stdDeviation="4"/>
            <feColorMatrix values="0 0 0 0 0 0 0 0 0 0 0 0 0 0 0 0 0 0 0.3 0"/>
            <feBlend in2="BackgroundImageFix" result="effect1_dropShadow_110_74"/>
            <feBlend in="SourceGraphic" in2="effect1_dropShadow_110_74" result="shape"/>
        </filter>
    </defs>
</svg>
