<svg width="27" height="27" viewBox="0 0 27 27" fill="none" xmlns="http://www.w3.org/2000/svg">
<path d="M18 0H2C0.9 0 0 0.9 0 2V18C0 19.1 0.9 20 2 20H18C19.1 20 20 19.1 20 18V2C20 0.9 19.1 0 18 0ZM6 18H2V14H6V18ZM6 12H2V8H6V12ZM6 6H2V2H6V6ZM12 18H8V14H12V18ZM12 12H8V8H12V12ZM12 6H8V2H12V6ZM18 18H14V14H18V18ZM18 12H14V8H18V12ZM18 6H14V2H18V6Z" fill="#FFFFFF"/>
<path fill-rule="evenodd" clip-rule="evenodd" d="M19.5 27L18.4125 25.9929C14.55 22.43 12 20.0801 12 17.1962C12 14.8463 13.815 13 16.125 13C17.43 13 18.6825 13.618 19.5 14.5946C20.3175 13.618 21.57 13 22.875 13C25.185 13 27 14.8463 27 17.1962C27 20.0801 24.45 22.43 20.5875 26.0005L19.5 27Z" fill="#FFFFFF"/>
</svg>
